<?xml version="1.0" encoding="UTF-8" standalone="no"?>
<!DOCTYPE svg PUBLIC "-//W3C//DTD SVG 1.1//EN" "http://www.w3.org/Graphics/SVG/1.1/DTD/svg11.dtd">
<svg width="100%" height="100%" viewBox="0 0 746 337" version="1.1" xmlns="http://www.w3.org/2000/svg" xmlns:xlink="http://www.w3.org/1999/xlink" xml:space="preserve" xmlns:serif="http://www.serif.com/" style="fill-rule:evenodd;clip-rule:evenodd;stroke-linejoin:round;stroke-miterlimit:2;">
    <rect id="Plan-de-travail1" serif:id="Plan de travail1" x="0" y="0" width="745.681" height="336.065" style="fill:none;"/>
    <g id="Plan-de-travail11" serif:id="Plan de travail1">
        <g transform="matrix(0.887742,0,0,0.90126,275.142,113.217)">
            <g transform="matrix(208.528,0,0,208.528,77.4475,244.615)">
                <path d="M0.089,-0.356C0.095,-0.389 0.099,-0.411 0.101,-0.423C0.102,-0.435 0.105,-0.454 0.108,-0.48C0.202,-0.501 0.283,-0.511 0.35,-0.511C0.389,-0.511 0.424,-0.507 0.456,-0.498C0.488,-0.49 0.512,-0.476 0.53,-0.457C0.548,-0.437 0.557,-0.41 0.557,-0.374C0.557,-0.356 0.555,-0.315 0.55,-0.251C0.545,-0.187 0.541,-0.104 0.539,-0C0.507,-0.001 0.475,-0.001 0.443,-0.001C0.413,-0.001 0.38,-0.001 0.346,-0C0.35,-0.036 0.355,-0.11 0.36,-0.222C0.348,-0.216 0.338,-0.212 0.331,-0.209C0.325,-0.206 0.312,-0.202 0.295,-0.197C0.277,-0.192 0.263,-0.188 0.254,-0.184C0.244,-0.181 0.235,-0.176 0.228,-0.17C0.22,-0.165 0.215,-0.159 0.212,-0.153C0.209,-0.147 0.208,-0.141 0.208,-0.134C0.208,-0.123 0.212,-0.113 0.221,-0.105C0.229,-0.098 0.243,-0.094 0.263,-0.094C0.27,-0.094 0.277,-0.094 0.285,-0.095C0.292,-0.097 0.303,-0.099 0.317,-0.104C0.307,-0.079 0.296,-0.042 0.283,0.006C0.255,0.01 0.229,0.013 0.204,0.013C0.163,0.013 0.13,0.007 0.103,-0.004C0.076,-0.015 0.055,-0.034 0.041,-0.059C0.026,-0.084 0.019,-0.109 0.019,-0.134C0.019,-0.149 0.022,-0.164 0.027,-0.179C0.032,-0.193 0.041,-0.208 0.052,-0.222C0.064,-0.236 0.077,-0.248 0.092,-0.258C0.108,-0.267 0.128,-0.277 0.155,-0.286C0.181,-0.294 0.215,-0.303 0.256,-0.311C0.273,-0.314 0.288,-0.317 0.302,-0.321C0.317,-0.325 0.327,-0.328 0.333,-0.331C0.339,-0.334 0.344,-0.337 0.347,-0.341C0.351,-0.344 0.354,-0.348 0.355,-0.352C0.357,-0.356 0.358,-0.361 0.358,-0.365C0.358,-0.378 0.353,-0.387 0.342,-0.394C0.332,-0.4 0.316,-0.404 0.296,-0.404C0.24,-0.404 0.171,-0.388 0.089,-0.356Z" style="fill:rgb(239,51,64);fill-rule:nonzero;"/>
            </g>
            <g transform="matrix(208.528,0,0,208.528,203.705,244.615)">
                <path d="M0.406,-0.144C0.4,-0.116 0.395,-0.09 0.391,-0.063L0.38,-0.004C0.348,0.003 0.323,0.008 0.305,0.01C0.287,0.012 0.269,0.013 0.252,0.013C0.225,0.013 0.2,0.01 0.179,0.006C0.157,0.001 0.139,-0.008 0.125,-0.02C0.111,-0.033 0.101,-0.047 0.096,-0.063C0.09,-0.08 0.088,-0.097 0.088,-0.115C0.088,-0.118 0.088,-0.124 0.088,-0.133C0.089,-0.141 0.09,-0.159 0.092,-0.188L0.102,-0.357L0.026,-0.357C0.028,-0.379 0.029,-0.409 0.031,-0.446L0.032,-0.491L0.113,-0.491C0.115,-0.506 0.117,-0.539 0.12,-0.589L0.204,-0.606C0.219,-0.609 0.252,-0.617 0.302,-0.629C0.299,-0.586 0.298,-0.54 0.297,-0.491L0.408,-0.491C0.406,-0.424 0.404,-0.379 0.404,-0.357L0.292,-0.357L0.286,-0.235C0.285,-0.217 0.285,-0.205 0.285,-0.2C0.285,-0.184 0.287,-0.171 0.29,-0.161C0.294,-0.15 0.3,-0.143 0.308,-0.138C0.317,-0.134 0.326,-0.131 0.337,-0.131C0.345,-0.131 0.353,-0.132 0.361,-0.133C0.37,-0.134 0.385,-0.138 0.406,-0.144Z" style="fill:rgb(239,51,64);fill-rule:nonzero;"/>
            </g>
            <g transform="matrix(208.528,0,0,208.528,292.492,244.615)">
                <path d="M0.459,-0.156C0.457,-0.143 0.453,-0.119 0.447,-0.084L0.435,-0.006C0.383,0.007 0.333,0.013 0.285,0.013C0.249,0.013 0.218,0.009 0.191,0.002C0.16,-0.007 0.132,-0.021 0.106,-0.043C0.081,-0.065 0.062,-0.091 0.05,-0.122C0.036,-0.157 0.029,-0.197 0.029,-0.241C0.029,-0.281 0.036,-0.32 0.05,-0.357C0.063,-0.395 0.084,-0.426 0.11,-0.45C0.137,-0.474 0.167,-0.49 0.199,-0.499C0.232,-0.507 0.268,-0.511 0.307,-0.511C0.33,-0.511 0.354,-0.51 0.377,-0.508C0.4,-0.505 0.429,-0.5 0.464,-0.492L0.465,-0.48C0.466,-0.469 0.467,-0.457 0.467,-0.445C0.468,-0.432 0.469,-0.413 0.47,-0.387L0.473,-0.343C0.427,-0.36 0.385,-0.368 0.35,-0.368C0.324,-0.368 0.301,-0.363 0.282,-0.353C0.263,-0.343 0.248,-0.329 0.239,-0.31C0.23,-0.291 0.225,-0.269 0.225,-0.245C0.225,-0.22 0.229,-0.199 0.238,-0.182C0.246,-0.165 0.259,-0.152 0.277,-0.144C0.296,-0.135 0.316,-0.131 0.337,-0.131C0.348,-0.131 0.362,-0.132 0.377,-0.134C0.392,-0.137 0.405,-0.139 0.416,-0.142C0.427,-0.145 0.442,-0.149 0.459,-0.156Z" style="fill:rgb(239,51,64);fill-rule:nonzero;"/>
            </g>
            <g transform="matrix(208.528,0,0,208.528,397.978,244.615)">
                <path d="M0.04,-0C0.045,-0.049 0.049,-0.088 0.051,-0.12C0.056,-0.185 0.061,-0.261 0.066,-0.348C0.068,-0.405 0.071,-0.46 0.072,-0.513C0.074,-0.565 0.074,-0.617 0.074,-0.667C0.116,-0.666 0.149,-0.666 0.175,-0.666C0.21,-0.666 0.244,-0.666 0.275,-0.667L0.265,-0.548C0.263,-0.529 0.261,-0.489 0.257,-0.43C0.268,-0.443 0.277,-0.454 0.283,-0.46C0.29,-0.467 0.298,-0.473 0.306,-0.479C0.314,-0.484 0.323,-0.489 0.331,-0.493C0.34,-0.497 0.35,-0.5 0.361,-0.503C0.372,-0.506 0.385,-0.509 0.398,-0.51C0.412,-0.512 0.426,-0.513 0.44,-0.513C0.468,-0.513 0.494,-0.51 0.52,-0.503C0.546,-0.497 0.568,-0.486 0.586,-0.471C0.605,-0.455 0.617,-0.438 0.624,-0.419C0.63,-0.4 0.633,-0.379 0.633,-0.356C0.633,-0.348 0.633,-0.336 0.633,-0.322C0.632,-0.307 0.631,-0.289 0.629,-0.267L0.619,-0.102C0.617,-0.082 0.617,-0.065 0.617,-0.051C0.616,-0.038 0.616,-0.021 0.616,-0C0.582,-0.001 0.55,-0.001 0.519,-0.001C0.484,-0.001 0.449,-0.001 0.413,-0C0.419,-0.043 0.423,-0.093 0.428,-0.15C0.432,-0.206 0.434,-0.248 0.434,-0.276C0.434,-0.306 0.427,-0.328 0.415,-0.34C0.402,-0.353 0.385,-0.359 0.364,-0.359C0.345,-0.359 0.328,-0.355 0.313,-0.347C0.3,-0.34 0.289,-0.33 0.279,-0.315C0.271,-0.303 0.264,-0.286 0.258,-0.263C0.251,-0.236 0.246,-0.195 0.243,-0.141C0.241,-0.111 0.239,-0.064 0.237,-0C0.204,-0.001 0.174,-0.001 0.145,-0.001C0.116,-0.001 0.081,-0.001 0.04,-0Z" style="fill:rgb(239,51,64);fill-rule:nonzero;"/>
            </g>
        </g>
        <g transform="matrix(1,0,0,1,-23.7118,-63.8173)">
            <path d="M344.102,249.329C344.061,250.325 344.041,251.061 344.041,251.538C344.041,255.332 344.696,258.924 346.006,262.312C347.316,265.7 349.772,268.698 353.374,271.307C356.977,273.916 361.48,275.711 366.883,276.694C368.25,276.942 369.667,277.159 371.133,277.345L332.527,397.793L284.802,397.63L272.441,322.242L252.202,398.037L206.266,397.529L183.253,285.087L208.015,311.177L219.491,284.07L234.137,359.133L253.758,272.235L297.76,272.235L310.356,360.942L336.717,272.235L344.102,249.329ZM376.535,148.727L382.709,129.577L371.366,129.577L417.658,63.817L424.601,139.711L415.019,135.119L403.274,173.276L396.598,173.276C396.845,163.044 397.256,153.49 397.83,144.613C388.135,146.552 381.037,147.923 376.535,148.727Z" style="fill:rgb(239,51,64);"/>
        </g>
        <g transform="matrix(0.90126,0,0,-1.02609,-42.741,476.769)">
            <path d="M47.424,261.528L88.378,261.528C94.14,294.022 100.019,326.539 106.989,359.275L130.936,261.528L176.828,261.528L194.246,357.151C202.56,327.806 210.157,297.517 219.339,267.065C220.053,264.697 212.575,269.018 213.309,266.649L250.489,231.075L267.905,270.386L260.694,266.886L225.896,400.29L168.014,400.534C162.087,371.115 156.501,343.435 153.457,315.363C147.15,344.83 140.368,372.631 131.754,400.56L86.868,400.29L47.424,261.528Z" style="fill:white;"/>
        </g>
        <g transform="matrix(0.90126,0,0,0.90126,127.427,-14.4299)">
            <g transform="matrix(208.486,0,0,208.486,77.4475,244.615)">
                <path d="M0.089,-0.356C0.095,-0.389 0.099,-0.411 0.101,-0.423C0.102,-0.435 0.105,-0.454 0.108,-0.48C0.202,-0.501 0.283,-0.511 0.35,-0.511C0.389,-0.511 0.424,-0.507 0.456,-0.498C0.488,-0.49 0.512,-0.476 0.53,-0.457C0.548,-0.437 0.557,-0.41 0.557,-0.374C0.557,-0.356 0.555,-0.315 0.55,-0.251C0.545,-0.187 0.541,-0.104 0.539,-0C0.507,-0.001 0.475,-0.001 0.443,-0.001C0.413,-0.001 0.38,-0.001 0.346,-0C0.35,-0.036 0.355,-0.11 0.36,-0.222C0.348,-0.216 0.338,-0.212 0.331,-0.209C0.325,-0.206 0.312,-0.202 0.295,-0.197C0.277,-0.192 0.263,-0.188 0.254,-0.184C0.244,-0.181 0.235,-0.176 0.228,-0.17C0.22,-0.165 0.215,-0.159 0.212,-0.153C0.209,-0.147 0.208,-0.141 0.208,-0.134C0.208,-0.123 0.212,-0.113 0.221,-0.105C0.229,-0.098 0.243,-0.094 0.263,-0.094C0.27,-0.094 0.277,-0.094 0.285,-0.095C0.292,-0.097 0.303,-0.099 0.317,-0.104C0.307,-0.079 0.296,-0.042 0.283,0.006C0.255,0.01 0.229,0.013 0.204,0.013C0.163,0.013 0.13,0.007 0.103,-0.004C0.076,-0.015 0.055,-0.034 0.041,-0.059C0.026,-0.084 0.019,-0.109 0.019,-0.134C0.019,-0.149 0.022,-0.164 0.027,-0.179C0.032,-0.193 0.041,-0.208 0.052,-0.222C0.064,-0.236 0.077,-0.248 0.092,-0.258C0.108,-0.267 0.128,-0.277 0.155,-0.286C0.181,-0.294 0.215,-0.303 0.256,-0.311C0.273,-0.314 0.288,-0.317 0.302,-0.321C0.317,-0.325 0.327,-0.328 0.333,-0.331C0.339,-0.334 0.344,-0.337 0.347,-0.341C0.351,-0.344 0.354,-0.348 0.355,-0.352C0.357,-0.356 0.358,-0.361 0.358,-0.365C0.358,-0.378 0.353,-0.387 0.342,-0.394C0.332,-0.4 0.316,-0.404 0.296,-0.404C0.24,-0.404 0.171,-0.388 0.089,-0.356Z" style="fill:white;fill-rule:nonzero;"/>
            </g>
            <g transform="matrix(208.486,0,0,208.486,203.679,244.615)">
                <path d="M0.406,-0.144C0.4,-0.116 0.395,-0.09 0.391,-0.063L0.38,-0.004C0.348,0.003 0.323,0.008 0.305,0.01C0.287,0.012 0.269,0.013 0.252,0.013C0.225,0.013 0.2,0.01 0.179,0.006C0.157,0.001 0.139,-0.008 0.125,-0.02C0.111,-0.033 0.101,-0.047 0.096,-0.063C0.09,-0.08 0.088,-0.097 0.088,-0.115C0.088,-0.118 0.088,-0.124 0.088,-0.133C0.089,-0.141 0.09,-0.159 0.092,-0.188L0.102,-0.357L0.026,-0.357C0.028,-0.379 0.029,-0.409 0.031,-0.446L0.032,-0.491L0.113,-0.491C0.115,-0.506 0.117,-0.539 0.12,-0.589L0.204,-0.606C0.219,-0.609 0.252,-0.617 0.302,-0.629C0.299,-0.586 0.298,-0.54 0.297,-0.491L0.408,-0.491C0.406,-0.424 0.404,-0.379 0.404,-0.357L0.292,-0.357L0.286,-0.235C0.285,-0.217 0.285,-0.205 0.285,-0.2C0.285,-0.184 0.287,-0.171 0.29,-0.161C0.294,-0.15 0.3,-0.143 0.308,-0.138C0.317,-0.134 0.326,-0.131 0.337,-0.131C0.345,-0.131 0.353,-0.132 0.361,-0.133C0.37,-0.134 0.385,-0.138 0.406,-0.144Z" style="fill:white;fill-rule:nonzero;"/>
            </g>
            <g transform="matrix(208.486,0,0,208.486,292.449,244.615)">
                <path d="M0.459,-0.156C0.457,-0.143 0.453,-0.119 0.447,-0.084L0.435,-0.006C0.383,0.007 0.333,0.013 0.285,0.013C0.249,0.013 0.218,0.009 0.191,0.002C0.16,-0.007 0.132,-0.021 0.106,-0.043C0.081,-0.065 0.062,-0.091 0.05,-0.122C0.036,-0.157 0.029,-0.197 0.029,-0.241C0.029,-0.281 0.036,-0.32 0.05,-0.357C0.063,-0.395 0.084,-0.426 0.11,-0.45C0.137,-0.474 0.167,-0.49 0.199,-0.499C0.232,-0.507 0.268,-0.511 0.307,-0.511C0.33,-0.511 0.354,-0.51 0.377,-0.508C0.4,-0.505 0.429,-0.5 0.464,-0.492L0.465,-0.48C0.466,-0.469 0.467,-0.457 0.467,-0.445C0.468,-0.432 0.469,-0.413 0.47,-0.387L0.473,-0.343C0.427,-0.36 0.385,-0.368 0.35,-0.368C0.324,-0.368 0.301,-0.363 0.282,-0.353C0.263,-0.343 0.248,-0.329 0.239,-0.31C0.23,-0.291 0.225,-0.269 0.225,-0.245C0.225,-0.22 0.229,-0.199 0.238,-0.182C0.246,-0.165 0.259,-0.152 0.277,-0.144C0.296,-0.135 0.316,-0.131 0.337,-0.131C0.348,-0.131 0.362,-0.132 0.377,-0.134C0.392,-0.137 0.405,-0.139 0.416,-0.142C0.427,-0.145 0.442,-0.149 0.459,-0.156Z" style="fill:white;fill-rule:nonzero;"/>
            </g>
            <g transform="matrix(208.486,0,0,208.486,397.913,244.615)">
                <path d="M0.04,-0C0.045,-0.049 0.049,-0.088 0.051,-0.12C0.056,-0.185 0.061,-0.261 0.066,-0.348C0.068,-0.405 0.071,-0.46 0.072,-0.513C0.074,-0.565 0.074,-0.617 0.074,-0.667C0.116,-0.666 0.149,-0.666 0.175,-0.666C0.21,-0.666 0.244,-0.666 0.275,-0.667L0.265,-0.548C0.263,-0.529 0.261,-0.489 0.257,-0.43C0.268,-0.443 0.277,-0.454 0.283,-0.46C0.29,-0.467 0.298,-0.473 0.306,-0.479C0.314,-0.484 0.323,-0.489 0.331,-0.493C0.34,-0.497 0.35,-0.5 0.361,-0.503C0.372,-0.506 0.385,-0.509 0.398,-0.51C0.412,-0.512 0.426,-0.513 0.44,-0.513C0.468,-0.513 0.494,-0.51 0.52,-0.503C0.546,-0.497 0.568,-0.486 0.586,-0.471C0.605,-0.455 0.617,-0.438 0.624,-0.419C0.63,-0.4 0.633,-0.379 0.633,-0.356C0.633,-0.348 0.633,-0.336 0.633,-0.322C0.632,-0.307 0.631,-0.289 0.629,-0.267L0.619,-0.102C0.617,-0.082 0.617,-0.065 0.617,-0.051C0.616,-0.038 0.616,-0.021 0.616,-0C0.582,-0.001 0.55,-0.001 0.519,-0.001C0.484,-0.001 0.449,-0.001 0.413,-0C0.419,-0.043 0.423,-0.093 0.428,-0.15C0.432,-0.206 0.434,-0.248 0.434,-0.276C0.434,-0.306 0.427,-0.328 0.415,-0.34C0.402,-0.353 0.385,-0.359 0.364,-0.359C0.345,-0.359 0.328,-0.355 0.313,-0.347C0.3,-0.34 0.289,-0.33 0.279,-0.315C0.271,-0.303 0.264,-0.286 0.258,-0.263C0.251,-0.236 0.246,-0.195 0.243,-0.141C0.241,-0.111 0.239,-0.064 0.237,-0C0.204,-0.001 0.174,-0.001 0.145,-0.001C0.116,-0.001 0.081,-0.001 0.04,-0Z" style="fill:white;fill-rule:nonzero;"/>
            </g>
        </g>
    </g>
</svg>
